<svg xmlns="http://www.w3.org/2000/svg" version="1.1" xmlns:xlink="http://www.w3.org/1999/xlink" xmlns:svgjs="http://svgjs.dev/svgjs" width="1500" height="1500" viewBox="0 0 1500 1500"><rect width="1500" height="1500" fill="#ffffff"></rect><g transform="matrix(0.6666666666666666,0,0,0.6666666666666666,249.39393939393938,592.1503607721519)"><svg viewBox="0 0 396 125" data-background-color="#ffffff" preserveAspectRatio="xMidYMid meet" height="473" width="1500" xmlns="http://www.w3.org/2000/svg" xmlns:xlink="http://www.w3.org/1999/xlink"><g id="tight-bounds" transform="matrix(1,0,0,1,0.2400000000000091,0.07253140638800915)"><svg viewBox="0 0 395.52 124.854937187224" height="124.854937187224" width="395.52"><g><svg viewBox="0 0 676.4458847589743 213.53562007518687" height="124.854937187224" width="395.52"><g transform="matrix(1,0,0,1,0,29.473792943576342)"><svg viewBox="0 0 395.52 154.5880341880342" height="154.5880341880342" width="395.52"><g id="textblocktransform"><svg viewBox="0 0 395.52 154.5880341880342" height="154.5880341880342" width="395.52" id="textblock"><g><svg viewBox="0 0 395.52 154.5880341880342" height="154.5880341880342" width="395.52"><g transform="matrix(1,0,0,1,0,0)"><svg width="395.52" viewBox="1.74 -38.44 99.71000000000001 38.97" height="154.5880341880342" data-palette-color="url(#5ad49f79-c1f6-4ee3-9e4d-05f4e4da4cae)"><g class="wordmark-text-0" data-fill-palette-color="primary" id="text-0"></g></svg></g></svg></g></svg></g></svg></g><g transform="matrix(1,0,0,1,432.01452475897435,0)"><svg viewBox="0 0 244.43135999999998 213.53562007518687" height="213.53562007518687" width="244.43135999999998"><g><svg xmlns="http://www.w3.org/2000/svg" xmlns:xlink="http://www.w3.org/1999/xlink" version="1.0" x="0" y="0" viewBox="2.9765914943813017 8.35789301189497 92.3264085056187 80.65649550680526" enable-background="new 0 0 100 100" xml:space="preserve" height="213.53562007518687" width="244.43135999999998" class="icon-icon-0" data-fill-palette-color="accent" id="icon-0"></svg></g></svg></g></svg></g><defs></defs><mask id="2a055a01-c5f0-41ba-9493-e37b5ff28be8"><g id="SvgjsG1495"><svg viewBox="0 0 395.52 124.854937187224" height="124.854937187224" width="395.52"><g><svg viewBox="0 0 676.4458847589743 213.53562007518687" height="124.854937187224" width="395.52"><g transform="matrix(1,0,0,1,0,29.473792943576342)"><svg viewBox="0 0 395.52 154.5880341880342" height="154.5880341880342" width="395.52"><g id="SvgjsG1494"><svg viewBox="0 0 395.52 154.5880341880342" height="154.5880341880342" width="395.52" id="SvgjsSvg1493"><g><svg viewBox="0 0 395.52 154.5880341880342" height="154.5880341880342" width="395.52"><g transform="matrix(1,0,0,1,0,0)"><svg width="395.52" viewBox="1.74 -38.44 99.71000000000001 38.97" height="154.5880341880342" data-palette-color="url(#5ad49f79-c1f6-4ee3-9e4d-05f4e4da4cae)"><g class="wordmark-text-0" data-fill-palette-color="primary" id="SvgjsG1492"><path d="M10.8 0.51L10.8 0.51Q8.19 0.51 6.14-0.4 4.1-1.31 2.92-3.12 1.74-4.92 1.74-7.62L1.74-7.62Q1.74-9.89 2.57-11.43 3.41-12.98 4.85-13.92 6.29-14.86 8.12-15.34 9.96-15.82 11.99-16.02L11.99-16.02Q14.36-16.26 15.82-16.49 17.28-16.71 17.93-17.15 18.59-17.6 18.59-18.47L18.59-18.47 18.59-18.57Q18.59-20.26 17.53-21.18 16.48-22.11 14.54-22.11L14.54-22.11Q12.5-22.11 11.29-21.21 10.09-20.31 9.69-18.96L9.69-18.96 2.7-19.53Q3.23-22.02 4.79-23.84 6.36-25.66 8.83-26.64 11.31-27.63 14.58-27.63L14.58-27.63Q16.85-27.63 18.94-27.1 21.02-26.56 22.65-25.44 24.27-24.33 25.21-22.58 26.15-20.83 26.15-18.39L26.15-18.39 26.15 0 18.98 0 18.98-3.78 18.77-3.78Q18.11-2.5 17.01-1.54 15.91-0.57 14.36-0.03 12.82 0.51 10.8 0.51ZM12.96-4.71L12.96-4.71Q14.63-4.71 15.91-5.37 17.19-6.04 17.92-7.17 18.64-8.31 18.64-9.75L18.64-9.75 18.64-12.64Q18.29-12.41 17.68-12.22 17.06-12.04 16.3-11.89 15.54-11.74 14.77-11.62 14.01-11.51 13.39-11.42L13.39-11.42Q12.06-11.22 11.06-10.8 10.07-10.37 9.52-9.65 8.97-8.93 8.97-7.87L8.97-7.87Q8.97-6.32 10.09-5.51 11.22-4.71 12.96-4.71ZM39.59 0L32.03 0 32.03-27.27 39.59-27.27 39.59 0ZM35.83-30.79L35.83-30.79Q34.14-30.79 32.94-31.92 31.74-33.04 31.74-34.62L31.74-34.62Q31.74-36.19 32.94-37.31 34.14-38.44 35.83-38.44L35.83-38.44Q37.52-38.44 38.71-37.31 39.91-36.19 39.91-34.62L39.91-34.62Q39.91-33.04 38.71-31.92 37.52-30.79 35.83-30.79ZM57.95 0.53L57.95 0.53Q53.81 0.53 50.8-1.23 47.79-3 46.16-6.17 44.53-9.34 44.53-13.53L44.53-13.53Q44.53-17.76 46.16-20.93 47.79-24.09 50.8-25.86 53.81-27.63 57.95-27.63L57.95-27.63Q62.09-27.63 65.1-25.86 68.11-24.09 69.74-20.93 71.37-17.76 71.37-13.53L71.37-13.53Q71.37-9.34 69.74-6.17 68.11-3 65.1-1.23 62.09 0.53 57.95 0.53ZM57.99-5.33L57.99-5.33Q59.87-5.33 61.13-6.4 62.39-7.48 63.04-9.34 63.68-11.2 63.68-13.58L63.68-13.58Q63.68-15.96 63.04-17.83 62.39-19.69 61.13-20.77 59.87-21.86 57.99-21.86L57.99-21.86Q56.09-21.86 54.8-20.77 53.51-19.69 52.86-17.83 52.21-15.96 52.21-13.58L52.21-13.58Q52.21-11.2 52.86-9.34 53.51-7.48 54.8-6.4 56.09-5.33 57.99-5.33ZM83.87-15.77L83.87-15.77 83.87 0 76.31 0 76.31-27.27 83.52-27.27 83.52-22.46 83.83-22.46Q84.74-24.84 86.87-26.23 89-27.63 92.04-27.63L92.04-27.63Q94.88-27.63 96.99-26.38 99.1-25.14 100.28-22.84 101.45-20.54 101.45-17.37L101.45-17.37 101.45 0 93.88 0 93.88-16.02Q93.9-18.52 92.61-19.93 91.31-21.34 89.04-21.34L89.04-21.34Q87.51-21.34 86.35-20.69 85.18-20.03 84.54-18.78 83.89-17.52 83.87-15.77Z" fill="white"></path></g></svg></g></svg></g></svg></g></svg></g><g transform="matrix(1,0,0,1,432.01452475897435,0)"><svg viewBox="0 0 244.43135999999998 213.53562007518687" height="213.53562007518687" width="244.43135999999998"><g><svg xmlns="http://www.w3.org/2000/svg" xmlns:xlink="http://www.w3.org/1999/xlink" version="1.0" x="0" y="0" viewBox="2.9765914943813017 8.35789301189497 92.3264085056187 80.65649550680526" enable-background="new 0 0 100 100" xml:space="preserve" height="213.53562007518687" width="244.43135999999998" class="icon-icon-0" data-fill-palette-color="accent" id="SvgjsSvg1491"><path d="M18.127 29.497c-3.363 5.156-5.037 10.954-5.161 16.799-0.358 0.191-0.708 0.388-1.047 0.584 0.588-5.979 2.599-11.904 6.132-17.269C18.074 29.574 18.1 29.536 18.127 29.497zM95.303 56.635c0 0.021-0.003 0.043-0.003 0.065-0.093-3.274-2.66-6.282-7.015-8.765 0.593 8.123-1.391 16.497-6.215 23.825-11.64 17.681-35.408 22.573-53.085 10.936-4.403-2.899-8.013-7.067-10.771-11.189-0.002 0-0.005-0.507-0.008-0.507h-0.002C8.939 69 3.081 63.362 2.978 57.846c-0.08-4.241 3.252-7.965 8.94-11.225 0.34-0.196 0.691-0.264 1.049-0.455 4.583-2.437 16.997-4.293 16.997-4.293s-0.322 1.005-0.411 1.913c-7.06 1.788-12.765 4.33-16.346 7.279 0.807 6.634 3.57 13.116 8.076 18.551 7.906 2.991 18.979 4.74 31.205 4.512 3.532-0.065 6.958-0.289 10.242-0.661-0.021-0.079-0.034-0.162-0.034-0.244-0.029-1.628 3.161-3.008 7.132-3.081 2.62-0.048 4.925 0.481 6.195 1.32 0.703-0.854 1.363-1.75 1.983-2.692 4.663-7.079 6.116-15.391 4.742-23.369-4.089-1.514-8.999-2.697-14.462-3.456 0.736 2.092 1.135 4.344 1.135 6.686 0 11.169-9.055 20.224-20.224 20.224-11.168 0-20.223-9.055-20.223-20.224 0-1.657 0.199-3.27 0.578-4.812 0 0-0.185 0.046 0 0 0.337 3.995 4.002 7 7.843 7 4.063 0 7.36-3.512 7.36-7.842 0-0.136-0.003-0.274-0.011-0.409-0.002-0.09-0.011-0.18-0.019-0.271-0.024-0.311-0.063-0.618-0.122-0.917-0.183-0.934-0.52-1.806-0.987-2.586-1.04-1.756-2.718-3.042-4.691-3.485-0.204-0.045-0.411-0.082-0.621-0.111-0.148-0.018-0.3-0.034-0.451-0.045-0.162-0.011-0.324-0.016-0.488-0.016-0.104 0-0.204 0.002-0.305 0.009-1.604 0.068-3.098 0.681-4.275 1.67 3.671-5.092 9.657-8.408 16.412-8.408 8.016 0 14.941 4.664 18.214 11.423 0.002 0.008 0.007 0.056 0.011 0.062C73.111 40.809 78.215 42 82.449 44h0.012c-1.934-9-7.416-17.315-15.909-22.907-2.45-1.613-5.011-2.923-7.633-3.902-0.076 0.148-0.165 0.284-0.258 0.425-1.813 2.753-5.514 3.512-8.267 1.698-2.753-1.811-3.515-5.514-1.703-8.267 1.814-2.756 5.511-3.518 8.267-1.704 1.506 0.992 2.419 2.554 2.634 4.211 3.997 1.027 7.898 2.721 11.543 5.122 10.009 6.591 15.922 17.072 17.051 28.136C92.632 49.628 95.234 52.972 95.303 56.635zM15.244 66.719c-2.068-4.504-3.246-9.37-3.474-14.309-1.795 1.869-2.761 3.882-2.721 5.964C9.107 61.464 11.364 64.315 15.244 66.719zM71.533 75.93c-0.513 0.059-1.045 0.093-1.595 0.104-2.177 0.04-4.135-0.321-5.46-0.92-4.689 0.748-9.729 1.112-14.986 1.21C40.838 76.487 32.725 76 25.774 74h-0.003c-0.011 0-0.023 0.074-0.034 0.07 1.223 1.054 2.528 2.08 3.915 2.992C43.215 85.99 60.237 85.112 71.533 75.93z" fill="black"></path></svg></g></svg></g></svg></g><defs><mask></mask></defs></svg><rect width="395.52" height="124.854937187224" fill="black" stroke="none" visibility="hidden"></rect></g></mask><linearGradient x1="0" x2="1" y1="0.548" y2="0.55" id="5ad49f79-c1f6-4ee3-9e4d-05f4e4da4cae"><stop stop-color="#ff6cab" offset="0"></stop><stop stop-color="#7366ff" offset="1"></stop></linearGradient><rect width="395.52" height="124.854937187224" fill="url(#5ad49f79-c1f6-4ee3-9e4d-05f4e4da4cae)" mask="url(#2a055a01-c5f0-41ba-9493-e37b5ff28be8)" data-fill-palette-color="primary"></rect><mask id="0789acd4-f6a8-411d-889e-4d0b04675c68"><g id="SvgjsG1505"><svg viewBox="0 0 395.52 124.854937187224" height="124.854937187224" width="395.52"><g><svg viewBox="0 0 676.4458847589743 213.53562007518687" height="124.854937187224" width="395.52"><g transform="matrix(1,0,0,1,0,29.473792943576342)"><svg viewBox="0 0 395.52 154.5880341880342" height="154.5880341880342" width="395.52"><g id="SvgjsG1504"><svg viewBox="0 0 395.52 154.5880341880342" height="154.5880341880342" width="395.52" id="SvgjsSvg1503"><g><svg viewBox="0 0 395.52 154.5880341880342" height="154.5880341880342" width="395.52"><g transform="matrix(1,0,0,1,0,0)"><svg width="395.52" viewBox="1.74 -38.44 99.71000000000001 38.97" height="154.5880341880342" data-palette-color="url(#5ad49f79-c1f6-4ee3-9e4d-05f4e4da4cae)"><g class="wordmark-text-0" data-fill-palette-color="primary" id="SvgjsG1502"></g></svg></g></svg></g></svg></g></svg></g><g transform="matrix(1,0,0,1,432.01452475897435,0)"><svg viewBox="0 0 244.43135999999998 213.53562007518687" height="213.53562007518687" width="244.43135999999998"><g><svg xmlns="http://www.w3.org/2000/svg" xmlns:xlink="http://www.w3.org/1999/xlink" version="1.0" x="0" y="0" viewBox="2.9765914943813017 8.35789301189497 92.3264085056187 80.65649550680526" enable-background="new 0 0 100 100" xml:space="preserve" height="213.53562007518687" width="244.43135999999998" class="icon-icon-0" data-fill-palette-color="accent" id="SvgjsSvg1501"><path d="M18.127 29.497c-3.363 5.156-5.037 10.954-5.161 16.799-0.358 0.191-0.708 0.388-1.047 0.584 0.588-5.979 2.599-11.904 6.132-17.269C18.074 29.574 18.1 29.536 18.127 29.497zM95.303 56.635c0 0.021-0.003 0.043-0.003 0.065-0.093-3.274-2.66-6.282-7.015-8.765 0.593 8.123-1.391 16.497-6.215 23.825-11.64 17.681-35.408 22.573-53.085 10.936-4.403-2.899-8.013-7.067-10.771-11.189-0.002 0-0.005-0.507-0.008-0.507h-0.002C8.939 69 3.081 63.362 2.978 57.846c-0.08-4.241 3.252-7.965 8.94-11.225 0.34-0.196 0.691-0.264 1.049-0.455 4.583-2.437 16.997-4.293 16.997-4.293s-0.322 1.005-0.411 1.913c-7.06 1.788-12.765 4.33-16.346 7.279 0.807 6.634 3.57 13.116 8.076 18.551 7.906 2.991 18.979 4.74 31.205 4.512 3.532-0.065 6.958-0.289 10.242-0.661-0.021-0.079-0.034-0.162-0.034-0.244-0.029-1.628 3.161-3.008 7.132-3.081 2.62-0.048 4.925 0.481 6.195 1.32 0.703-0.854 1.363-1.75 1.983-2.692 4.663-7.079 6.116-15.391 4.742-23.369-4.089-1.514-8.999-2.697-14.462-3.456 0.736 2.092 1.135 4.344 1.135 6.686 0 11.169-9.055 20.224-20.224 20.224-11.168 0-20.223-9.055-20.223-20.224 0-1.657 0.199-3.27 0.578-4.812 0 0-0.185 0.046 0 0 0.337 3.995 4.002 7 7.843 7 4.063 0 7.36-3.512 7.36-7.842 0-0.136-0.003-0.274-0.011-0.409-0.002-0.09-0.011-0.18-0.019-0.271-0.024-0.311-0.063-0.618-0.122-0.917-0.183-0.934-0.52-1.806-0.987-2.586-1.04-1.756-2.718-3.042-4.691-3.485-0.204-0.045-0.411-0.082-0.621-0.111-0.148-0.018-0.3-0.034-0.451-0.045-0.162-0.011-0.324-0.016-0.488-0.016-0.104 0-0.204 0.002-0.305 0.009-1.604 0.068-3.098 0.681-4.275 1.67 3.671-5.092 9.657-8.408 16.412-8.408 8.016 0 14.941 4.664 18.214 11.423 0.002 0.008 0.007 0.056 0.011 0.062C73.111 40.809 78.215 42 82.449 44h0.012c-1.934-9-7.416-17.315-15.909-22.907-2.45-1.613-5.011-2.923-7.633-3.902-0.076 0.148-0.165 0.284-0.258 0.425-1.813 2.753-5.514 3.512-8.267 1.698-2.753-1.811-3.515-5.514-1.703-8.267 1.814-2.756 5.511-3.518 8.267-1.704 1.506 0.992 2.419 2.554 2.634 4.211 3.997 1.027 7.898 2.721 11.543 5.122 10.009 6.591 15.922 17.072 17.051 28.136C92.632 49.628 95.234 52.972 95.303 56.635zM15.244 66.719c-2.068-4.504-3.246-9.37-3.474-14.309-1.795 1.869-2.761 3.882-2.721 5.964C9.107 61.464 11.364 64.315 15.244 66.719zM71.533 75.93c-0.513 0.059-1.045 0.093-1.595 0.104-2.177 0.04-4.135-0.321-5.46-0.92-4.689 0.748-9.729 1.112-14.986 1.21C40.838 76.487 32.725 76 25.774 74h-0.003c-0.011 0-0.023 0.074-0.034 0.07 1.223 1.054 2.528 2.08 3.915 2.992C43.215 85.99 60.237 85.112 71.533 75.93z" fill="white"></path></svg></g></svg></g></svg></g><defs><mask></mask></defs><mask><g id="SvgjsG1500"><svg viewBox="0 0 395.52 124.854937187224" height="124.854937187224" width="395.52"><g><svg viewBox="0 0 676.4458847589743 213.53562007518687" height="124.854937187224" width="395.52"><g transform="matrix(1,0,0,1,0,29.473792943576342)"><svg viewBox="0 0 395.52 154.5880341880342" height="154.5880341880342" width="395.52"><g id="SvgjsG1499"><svg viewBox="0 0 395.52 154.5880341880342" height="154.5880341880342" width="395.52" id="SvgjsSvg1498"><g><svg viewBox="0 0 395.52 154.5880341880342" height="154.5880341880342" width="395.52"><g transform="matrix(1,0,0,1,0,0)"><svg width="395.52" viewBox="1.74 -38.44 99.71000000000001 38.97" height="154.5880341880342" data-palette-color="url(#5ad49f79-c1f6-4ee3-9e4d-05f4e4da4cae)"><g class="wordmark-text-0" data-fill-palette-color="primary" id="SvgjsG1497"><path d="M10.8 0.51L10.8 0.51Q8.19 0.51 6.14-0.4 4.1-1.31 2.92-3.12 1.74-4.92 1.74-7.62L1.74-7.62Q1.74-9.89 2.57-11.43 3.41-12.98 4.85-13.92 6.29-14.86 8.12-15.34 9.96-15.82 11.99-16.02L11.99-16.02Q14.36-16.26 15.82-16.49 17.28-16.71 17.93-17.15 18.59-17.6 18.59-18.47L18.59-18.47 18.59-18.57Q18.59-20.26 17.53-21.18 16.48-22.11 14.54-22.11L14.54-22.11Q12.5-22.11 11.29-21.21 10.09-20.31 9.69-18.96L9.69-18.96 2.7-19.53Q3.23-22.02 4.79-23.84 6.36-25.66 8.83-26.64 11.31-27.63 14.58-27.63L14.58-27.63Q16.85-27.63 18.94-27.1 21.02-26.56 22.65-25.44 24.27-24.33 25.21-22.58 26.15-20.83 26.15-18.39L26.15-18.39 26.15 0 18.98 0 18.98-3.78 18.77-3.78Q18.11-2.5 17.01-1.54 15.91-0.57 14.36-0.03 12.82 0.51 10.8 0.51ZM12.96-4.71L12.96-4.71Q14.63-4.71 15.91-5.37 17.19-6.04 17.92-7.17 18.64-8.31 18.64-9.75L18.64-9.75 18.64-12.64Q18.29-12.41 17.68-12.22 17.06-12.04 16.3-11.89 15.54-11.74 14.77-11.62 14.01-11.51 13.39-11.42L13.39-11.42Q12.06-11.22 11.06-10.8 10.07-10.37 9.52-9.65 8.97-8.93 8.97-7.87L8.97-7.87Q8.97-6.32 10.09-5.51 11.22-4.71 12.96-4.71ZM39.59 0L32.03 0 32.03-27.27 39.59-27.27 39.59 0ZM35.83-30.79L35.83-30.79Q34.14-30.79 32.94-31.92 31.74-33.04 31.74-34.62L31.74-34.62Q31.74-36.19 32.94-37.31 34.14-38.44 35.83-38.44L35.83-38.44Q37.52-38.44 38.71-37.31 39.91-36.19 39.91-34.62L39.91-34.62Q39.91-33.04 38.71-31.92 37.52-30.79 35.83-30.79ZM57.95 0.53L57.95 0.53Q53.81 0.53 50.8-1.23 47.79-3 46.16-6.17 44.53-9.34 44.53-13.53L44.53-13.53Q44.53-17.76 46.16-20.93 47.79-24.09 50.8-25.86 53.81-27.63 57.95-27.63L57.95-27.63Q62.09-27.63 65.1-25.86 68.11-24.09 69.74-20.93 71.37-17.76 71.37-13.53L71.37-13.53Q71.37-9.34 69.74-6.17 68.11-3 65.1-1.23 62.09 0.53 57.95 0.53ZM57.99-5.33L57.99-5.33Q59.87-5.33 61.13-6.4 62.39-7.48 63.04-9.34 63.68-11.2 63.68-13.58L63.68-13.58Q63.68-15.96 63.04-17.83 62.39-19.69 61.13-20.77 59.87-21.86 57.99-21.86L57.99-21.86Q56.09-21.86 54.8-20.77 53.51-19.69 52.86-17.83 52.21-15.96 52.21-13.58L52.21-13.58Q52.21-11.2 52.86-9.34 53.51-7.48 54.8-6.4 56.09-5.33 57.99-5.33ZM83.87-15.77L83.87-15.77 83.87 0 76.31 0 76.31-27.27 83.52-27.27 83.52-22.46 83.83-22.46Q84.74-24.84 86.87-26.23 89-27.63 92.04-27.63L92.04-27.63Q94.88-27.63 96.99-26.38 99.1-25.14 100.28-22.84 101.45-20.54 101.45-17.37L101.45-17.37 101.45 0 93.88 0 93.88-16.02Q93.9-18.52 92.61-19.93 91.31-21.34 89.04-21.34L89.04-21.34Q87.51-21.34 86.35-20.69 85.18-20.03 84.54-18.78 83.89-17.52 83.87-15.77Z" fill="black"></path></g></svg></g></svg></g></svg></g></svg></g><g transform="matrix(1,0,0,1,432.01452475897435,0)"><svg viewBox="0 0 244.43135999999998 213.53562007518687" height="213.53562007518687" width="244.43135999999998"><g><svg xmlns="http://www.w3.org/2000/svg" xmlns:xlink="http://www.w3.org/1999/xlink" version="1.0" x="0" y="0" viewBox="2.9765914943813017 8.35789301189497 92.3264085056187 80.65649550680526" enable-background="new 0 0 100 100" xml:space="preserve" height="213.53562007518687" width="244.43135999999998" class="icon-icon-0" data-fill-palette-color="accent" id="SvgjsSvg1496"><path d="M18.127 29.497c-3.363 5.156-5.037 10.954-5.161 16.799-0.358 0.191-0.708 0.388-1.047 0.584 0.588-5.979 2.599-11.904 6.132-17.269C18.074 29.574 18.1 29.536 18.127 29.497zM95.303 56.635c0 0.021-0.003 0.043-0.003 0.065-0.093-3.274-2.66-6.282-7.015-8.765 0.593 8.123-1.391 16.497-6.215 23.825-11.64 17.681-35.408 22.573-53.085 10.936-4.403-2.899-8.013-7.067-10.771-11.189-0.002 0-0.005-0.507-0.008-0.507h-0.002C8.939 69 3.081 63.362 2.978 57.846c-0.08-4.241 3.252-7.965 8.94-11.225 0.34-0.196 0.691-0.264 1.049-0.455 4.583-2.437 16.997-4.293 16.997-4.293s-0.322 1.005-0.411 1.913c-7.06 1.788-12.765 4.33-16.346 7.279 0.807 6.634 3.57 13.116 8.076 18.551 7.906 2.991 18.979 4.74 31.205 4.512 3.532-0.065 6.958-0.289 10.242-0.661-0.021-0.079-0.034-0.162-0.034-0.244-0.029-1.628 3.161-3.008 7.132-3.081 2.62-0.048 4.925 0.481 6.195 1.32 0.703-0.854 1.363-1.75 1.983-2.692 4.663-7.079 6.116-15.391 4.742-23.369-4.089-1.514-8.999-2.697-14.462-3.456 0.736 2.092 1.135 4.344 1.135 6.686 0 11.169-9.055 20.224-20.224 20.224-11.168 0-20.223-9.055-20.223-20.224 0-1.657 0.199-3.27 0.578-4.812 0 0-0.185 0.046 0 0 0.337 3.995 4.002 7 7.843 7 4.063 0 7.36-3.512 7.36-7.842 0-0.136-0.003-0.274-0.011-0.409-0.002-0.09-0.011-0.18-0.019-0.271-0.024-0.311-0.063-0.618-0.122-0.917-0.183-0.934-0.52-1.806-0.987-2.586-1.04-1.756-2.718-3.042-4.691-3.485-0.204-0.045-0.411-0.082-0.621-0.111-0.148-0.018-0.3-0.034-0.451-0.045-0.162-0.011-0.324-0.016-0.488-0.016-0.104 0-0.204 0.002-0.305 0.009-1.604 0.068-3.098 0.681-4.275 1.67 3.671-5.092 9.657-8.408 16.412-8.408 8.016 0 14.941 4.664 18.214 11.423 0.002 0.008 0.007 0.056 0.011 0.062C73.111 40.809 78.215 42 82.449 44h0.012c-1.934-9-7.416-17.315-15.909-22.907-2.45-1.613-5.011-2.923-7.633-3.902-0.076 0.148-0.165 0.284-0.258 0.425-1.813 2.753-5.514 3.512-8.267 1.698-2.753-1.811-3.515-5.514-1.703-8.267 1.814-2.756 5.511-3.518 8.267-1.704 1.506 0.992 2.419 2.554 2.634 4.211 3.997 1.027 7.898 2.721 11.543 5.122 10.009 6.591 15.922 17.072 17.051 28.136C92.632 49.628 95.234 52.972 95.303 56.635zM15.244 66.719c-2.068-4.504-3.246-9.37-3.474-14.309-1.795 1.869-2.761 3.882-2.721 5.964C9.107 61.464 11.364 64.315 15.244 66.719zM71.533 75.93c-0.513 0.059-1.045 0.093-1.595 0.104-2.177 0.04-4.135-0.321-5.46-0.92-4.689 0.748-9.729 1.112-14.986 1.21C40.838 76.487 32.725 76 25.774 74h-0.003c-0.011 0-0.023 0.074-0.034 0.07 1.223 1.054 2.528 2.08 3.915 2.992C43.215 85.99 60.237 85.112 71.533 75.93z" fill="black"></path></svg></g></svg></g></svg></g><defs><mask></mask></defs></svg><rect width="395.52" height="124.854937187224" fill="black" stroke="none" visibility="hidden"></rect></g></mask></svg><rect width="395.52" height="124.854937187224" fill="black" stroke="none" visibility="hidden"></rect></g></mask><linearGradient x1="0" x2="1" y1="0.548" y2="0.55" id="197414b0-275f-41a6-b1b3-7dcd1c946fb0"><stop stop-color="#ff6cab" offset="0"></stop><stop stop-color="#7366ff" offset="1"></stop></linearGradient><rect width="395.52" height="124.854937187224" fill="url(#197414b0-275f-41a6-b1b3-7dcd1c946fb0)" mask="url(#0789acd4-f6a8-411d-889e-4d0b04675c68)" data-fill-palette-color="accent"></rect></svg><rect width="395.52" height="124.854937187224" fill="none" stroke="none" visibility="hidden"></rect></g></svg></g></svg>